#!OML:ASF E:\motion texture\Top Level 1\Subject 1\Session 1\male.ASF
:FULLY-SPECIFIED
:DEGREES
611
root -26.2841 17.212 1.72877 14.2061 -72.7002 -15.2388
lowerback 3.45444 1.21035 4.24285
upperback 2.44866 1.6553 2.69077
thorax 0.623866 0.831547 0.339667
lowerneck -17.021 4.60452 -2.09904
upperneck 18.3988 8.00356 -5.55405
head 8.73129 2.96256 -0.543511
rclavicle 8.65707e-014 -2.78299e-015
rhumerus -23.0935 -10.5066 -71.8301
rradius 50.2609
rwrist 6.70099
rhand -15.8687 -30.6947
rfingers 7.12502
rthumb 10.3268 -60.4212
lclavicle 8.65707e-014 -2.78299e-015
lhumerus -14.3945 11.0075 83.2505
lradius 34.4616
lwrist -19.883
lhand -16.8691 22.2201
lfingers 7.12502
lthumb 9.36167 51.9922
rfemur -28.3667 -1.82597 12.5194
rtibia 13.5088
rfoot 8.40182 -20.4924
rtoes 6.73413
lfemur -16.3452 -6.06996 -14.5786
ltibia 48.9852
lfoot -17.9608 -13.7479
ltoes -5.06151
612
root -26.1714 17.2367 1.72742 14.9483 -72.722 -15.9485
lowerback 3.44288 1.48347 4.36743
upperback 2.37693 2.02655 2.65843
thorax 0.571722 1.01792 0.226749
lowerneck -16.6633 4.56762 -2.0302
upperneck 18.1542 7.98233 -5.95495
head 8.60657 2.93094 -0.70098
rclavicle 3.70733e-014 3.49861e-014
rhumerus -23.6153 -10.389 -71.7599
rradius 49.839
rwrist 6.62712
rhand -15.6017 -31.4268
rfingers 7.12502
rthumb 10.5844 -61.1403
lclavicle 3.70733e-014 3.49861e-014
lhumerus -15.0374 11.0876 82.2328
lradius 34.4567
lwrist -19.1794
lhand -16.571 22.5269
lfingers 7.12502
lthumb 9.64929 52.2859
rfemur -28.3885 -1.78722 12.5859
rtibia 14.3566
rfoot 6.22379 -19.2663
rtoes 5.63269
lfemur -16.3534 -6.13689 -14.4191
ltibia 48.1368
lfoot -17.8839 -13.4566
ltoes -4.03245
613
root -26.0488 17.2645 1.73971 15.1213 -72.7517 -16.0142
lowerback 3.35325 1.56082 4.40352
upperback 2.2952 2.1327 2.52288
thorax 0.547074 1.07283 0.0660505
lowerneck -16.719 4.63545 -2.38686
upperneck 18.3704 8.13039 -5.7019
head 8.66723 2.99089 -0.538482
rclavicle 3.52843e-015 2.14687e-014
rhumerus -23.896 -10.2262 -72.037
rradius 49.2593
rwrist 6.68182
rhand -15.3212 -31.2978
rfingers 7.12502
rthumb 10.8549 -60.9973
lclavicle 3.52843e-015 2.14687e-014
lhumerus -15.2935 13.3712 80.9772
lradius 33.6187
lwrist -20.3074
lhand -15.7201 22.3413
lfingers 7.12502
lthumb 10.4702 52.0606
rfemur -28.5542 -2.57475 12.7114
rtibia 15.5671
rfoot 4.72864 -17.5929
rtoes 3.11537
lfemur -16.4028 -6.3246 -14.6047
ltibia 47.2921
lfoot -17.9703 -12.9642
ltoes -3.94049
614
root -25.9338 17.2902 1.74502 15.3141 -72.8212 -16.2153
lowerback 3.27861 1.69819 4.36091
upperback 2.34057 2.30831 2.48042
thorax 0.640927 1.1626 0.0454735
lowerneck -16.5454 4.71028 -2.38568
upperneck 18.1959 8.28068 -6.04245
head 8.59797 3.03467 -0.638974
rclavicle -4.84041e-014 -7.55382e-015
rhumerus -23.8057 -10.0225 -72.202
rradius 48.3457
rwrist 6.64648
rhand -15.0645 -31.2231
rfingers 7.12502
rthumb 11.1025 -60.9094
lclavicle -4.84041e-014 -7.55382e-015
lhumerus -15.9237 14.038 79.7952
lradius 33.5293
lwrist -20.0142
lhand -15.3975 22.5787
lfingers 7.12502
lthumb 10.7813 52.282
rfemur -28.5548 -3.15208 12.8735
rtibia 16.8555
rfoot 3.38549 -16.305
rtoes 0.756042
lfemur -16.3021 -6.44624 -14.7115
ltibia 46.4028
lfoot -17.8167 -12.6044
ltoes -3.16284
615
root -25.8188 17.3169 1.7485 15.5744 -72.9086 -16.4842
lowerback 3.33468 1.89039 4.41034
upperback 2.26083 2.57589 2.36372
thorax 0.543457 1.29656 -0.111525
lowerneck -16.5371 4.71862 -2.69662
upperneck 18.3404 8.34458 -5.8757
head 8.62646 3.05344 -0.525229
rclavicle -7.01213e-014 -2.06736e-014
rhumerus -24.1078 -10.1057 -72.3715
rradius 47.7126
rwrist 6.77565
rhand -14.6781 -30.8936
rfingers 7.12502
rthumb 11.4752 -60.5595
lclavicle -7.01213e-014 -2.06736e-014
lhumerus -16.4126 15.3294 78.5628
lradius 32.9702
lwrist -20.6646
lhand -15.2609 22.1495
lfingers 7.12502
lthumb 10.9131 51.8459
rfemur -28.5292 -3.70702 13.0934
rtibia 18.2622
rfoot 1.98488 -15.5539
rtoes -0.570431
lfemur -16.2175 -6.51419 -14.7904
ltibia 45.5351
lfoot -17.6354 -12.214
ltoes -2.52451
616
root -25.7038 17.3444 1.75159 15.6571 -72.9542 -16.6028
lowerback 3.38774 2.03491 4.41465
upperback 2.25284 2.77396 2.26273
thorax 0.517568 1.39648 -0.22424
lowerneck -16.9676 4.74526 -3.30826
upperneck 18.7751 8.49056 -5.37869
head 8.80483 3.10168 -0.229797
rclavicle -2.90723e-015 -2.98177e-014
rhumerus -24.3025 -10.0698 -72.5983
rradius 47.1042
rwrist 6.91471
rhand -14.3674 -30.4831
rfingers 7.12502
rthumb 11.7749 -60.1321
lclavicle -2.90723e-015 -2.98177e-014
lhumerus -17.0375 16.2843 77.2988
lradius 32.672
lwrist -20.9225
lhand -15.1804 22.0602
lfingers 7.12502
lthumb 10.9908 51.7525
rfemur -28.4532 -4.36719 13.2975
rtibia 19.8407
rfoot 0.353586 -15.3398
rtoes -1.44832
lfemur -16.1187 -6.62153 -14.9283
ltibia 44.7763
lfoot -17.6048 -11.6854
ltoes -2.72756
